<?xml version="1.0" encoding="utf-8"?>
<!-- Generator: Adobe Illustrator 27.3.1, SVG Export Plug-In . SVG Version: 6.00 Build 0)  -->
<svg version="1.1" id="Layer_1" xmlns="http://www.w3.org/2000/svg" xmlns:xlink="http://www.w3.org/1999/xlink" x="0px" y="0px"
	 viewBox="0 0 398.5 81" style="enable-background:new 0 0 398.5 81;" xml:space="preserve">
<style type="text/css">
	.st0{clip-path:url(#SVGID_00000040559267172170169060000004312042317935506362_);}
	.st1{clip-path:url(#SVGID_00000085934459153166754980000016349648874460734103_);fill:#466D51;}
	.st2{clip-path:url(#SVGID_00000085934459153166754980000016349648874460734103_);}
	.st3{clip-path:url(#SVGID_00000039128434399705869850000014106715038475418041_);fill:#466D51;}
	.st4{clip-path:url(#SVGID_00000039128434399705869850000014106715038475418041_);fill:#83B786;}
	
		.st5{clip-path:url(#SVGID_00000039128434399705869850000014106715038475418041_);fill-rule:evenodd;clip-rule:evenodd;fill:#466D51;}
</style>
<g>
	<defs>
		<rect id="SVGID_1_" x="1.18" y="5.55" width="397" height="75"/>
	</defs>
	<clipPath id="SVGID_00000023251841783623481340000001539385992267534010_">
		<use xlink:href="#SVGID_1_"  style="overflow:visible;"/>
	</clipPath>
	<g style="clip-path:url(#SVGID_00000023251841783623481340000001539385992267534010_);">
		<g>
			<defs>
				<rect id="SVGID_00000168816313930451485510000003322953400037331347_" x="-161.32" y="-200.95" width="720" height="412.14"/>
			</defs>
			<clipPath id="SVGID_00000067941874004984347920000004913394290332143028_">
				<use xlink:href="#SVGID_00000168816313930451485510000003322953400037331347_"  style="overflow:visible;"/>
			</clipPath>
			<polygon style="clip-path:url(#SVGID_00000067941874004984347920000004913394290332143028_);fill:#466D51;" points="
				12.51,-24.41 12.51,-77.24 32.91,-77.24 32.91,-71.53 18.89,-71.53 18.89,-53.79 30.98,-53.79 30.98,-48.08 18.89,-48.08 
				18.89,-30.12 32.91,-30.12 32.91,-24.41 			"/>
			<g style="clip-path:url(#SVGID_00000067941874004984347920000004913394290332143028_);">
				<defs>
					<rect id="SVGID_00000142876441442166379910000011836464708260679332_" x="-161.32" y="-200.95" width="720" height="412.14"/>
				</defs>
				<clipPath id="SVGID_00000165196726832344090130000012230046059165907884_">
					<use xlink:href="#SVGID_00000142876441442166379910000011836464708260679332_"  style="overflow:visible;"/>
				</clipPath>
				<path style="clip-path:url(#SVGID_00000165196726832344090130000012230046059165907884_);fill:#466D51;" d="M58.66-26.71
					c-2.08,1.86-4.67,2.89-8.16,2.89c-4.15,0-7.05-1.56-9.05-3.86c-3.49-4.01-3.86-8.53-3.86-23.15c0-14.62,0.37-19.14,3.86-23.15
					c2-2.3,4.9-3.86,9.05-3.86c3.71,0,6.31,1.11,8.38,3.12c2.45,2.37,3.71,6.16,3.78,10.46h-6.31c-0.07-2.23-0.45-4.45-1.71-6.01
					c-0.82-1.04-2.15-1.85-4.15-1.85c-2.08,0-3.49,0.82-4.38,2c-1.86,2.52-2.15,6.75-2.15,19.29s0.3,16.77,2.15,19.29
					c0.89,1.19,2.3,2,4.38,2c2,0,3.34-0.82,4.15-1.86c1.19-1.56,1.63-3.86,1.71-6.08h6.31C62.59-33.02,61.26-29.08,58.66-26.71"/>
				<path style="clip-path:url(#SVGID_00000165196726832344090130000012230046059165907884_);fill:#466D51;" d="M89.45-27.68
					c-2.08,2.3-4.9,3.86-9.05,3.86s-6.97-1.56-9.05-3.86c-3.41-3.78-3.86-8.53-3.86-23.15c0-14.62,0.45-19.37,3.86-23.15
					c2.08-2.3,4.9-3.86,9.05-3.86s6.97,1.56,9.05,3.86c3.41,3.78,3.86,8.53,3.86,23.15C93.31-36.21,92.86-31.46,89.45-27.68
					 M84.7-70.12c-0.89-1.19-2.23-2-4.3-2c-2.08,0-3.49,0.82-4.38,2c-1.86,2.52-2.15,6.75-2.15,19.29c0,12.54,0.3,16.77,2.15,19.29
					c0.89,1.19,2.3,2,4.38,2c2.08,0,3.41-0.82,4.3-2c1.85-2.52,2.23-6.75,2.23-19.29C86.93-63.36,86.56-67.59,84.7-70.12"/>
				<polygon style="clip-path:url(#SVGID_00000165196726832344090130000012230046059165907884_);fill:#83B786;" points="
					99.69,-24.41 99.69,-77.24 120.09,-77.24 120.09,-71.53 106.07,-71.53 106.07,-53.79 118.17,-53.79 118.17,-48.08 
					106.07,-48.08 106.07,-30.12 120.09,-30.12 120.09,-24.41 				"/>
				<polygon style="clip-path:url(#SVGID_00000165196726832344090130000012230046059165907884_);fill:#83B786;" points="
					146.06,-24.41 132.41,-60.55 132.41,-24.41 126.03,-24.41 126.03,-77.24 131.97,-77.24 145.47,-41.11 145.47,-77.24 
					151.85,-77.24 151.85,-24.41 				"/>
				<path style="clip-path:url(#SVGID_00000165196726832344090130000012230046059165907884_);fill:#83B786;" d="M179.38-26.71
					c-2.08,1.86-4.67,2.89-8.16,2.89c-4.15,0-7.05-1.56-9.05-3.86c-3.49-4.01-3.86-8.53-3.86-23.15c0-14.62,0.37-19.14,3.86-23.15
					c2-2.3,4.9-3.86,9.05-3.86c3.71,0,6.31,1.11,8.38,3.12c2.45,2.37,3.71,6.16,3.78,10.46h-6.31c-0.07-2.23-0.45-4.45-1.71-6.01
					c-0.82-1.04-2.15-1.85-4.15-1.85c-2.08,0-3.49,0.82-4.38,2c-1.86,2.52-2.15,6.75-2.15,19.29s0.3,16.77,2.15,19.29
					c0.89,1.19,2.3,2,4.38,2c2,0,3.34-0.82,4.15-1.86c1.19-1.56,1.63-3.86,1.71-6.08h6.31C183.31-33.02,181.98-29.08,179.38-26.71"
					/>
				<polygon style="clip-path:url(#SVGID_00000165196726832344090130000012230046059165907884_);fill:#83B786;" points="
					189.1,-24.41 189.1,-77.24 195.48,-77.24 195.48,-30.12 209.5,-30.12 209.5,-24.41 				"/>
				<path style="clip-path:url(#SVGID_00000165196726832344090130000012230046059165907884_);fill:#83B786;" d="M263.45-27.08
					c-2,1.93-5.12,3.19-9.35,3.19c-4.08,0-7.2-1.11-9.27-3.19c-2.45-2.45-3.26-5.49-3.26-11.13h6.38c0,3.49,0.37,5.42,1.78,6.9
					c0.89,0.96,2.37,1.63,4.38,1.63c2.15,0,3.56-0.67,4.53-1.71c1.41-1.56,1.71-3.56,1.71-7.05c0-6.08-0.89-7.94-5.19-9.72
					l-6.01-2.45c-5.42-2.23-7.2-5.19-7.2-13.21c0-4.6,1.34-8.38,4.01-10.83c2.08-1.93,4.9-3.04,8.39-3.04
					c3.86,0,6.75,1.11,8.75,3.04c2.67,2.6,3.49,6.01,3.49,10.83h-6.38c0-2.82-0.3-4.75-1.63-6.38c-0.89-1.11-2.3-1.78-4.3-1.78
					c-1.85,0-3.19,0.67-4.08,1.63c-1.26,1.41-1.86,3.56-1.86,6.31c0,5.19,0.82,6.75,5.05,8.53l5.93,2.45
					c6.01,2.45,7.42,6.16,7.42,14.47C266.71-33.09,265.97-29.61,263.45-27.08"/>
				<polygon style="clip-path:url(#SVGID_00000165196726832344090130000012230046059165907884_);fill:#83B786;" points="
					272.8,-24.41 272.8,-77.24 293.2,-77.24 293.2,-71.53 279.18,-71.53 279.18,-53.79 291.27,-53.79 291.27,-48.08 279.18,-48.08 
					279.18,-30.12 293.2,-30.12 293.2,-24.41 				"/>
				<path style="clip-path:url(#SVGID_00000165196726832344090130000012230046059165907884_);fill:#83B786;" d="M230.68-50.88
					L230.68-50.88c0,0.35,0,0.67,0,1h-3.55l3.49,6.05l3.22,5.58l3.15-5.46l3.56-6.17h-3.49c0-0.33,0-0.66,0-1l0-0.29l-0.01-1.25h0
					c-0.03-13.38-0.57-17.92-3.85-21.56c-2.07-2.3-4.89-3.85-9.03-3.85c-4.15,0-6.96,1.55-9.03,3.85
					c-3.41,3.78-3.85,8.52-3.85,23.11c0,14.59,0.44,19.33,3.85,23.1c2.07,2.29,4.89,3.85,9.03,3.85c4.15,0,6.96-1.56,9.03-3.85
					c2.38-2.64,3.32-5.76,3.66-12.39l-3.02,5.24l-3.33-5.77c-0.25,5.01-0.83,7.42-2.05,9.08c-0.89,1.18-2.22,2-4.29,2
					c-2.07,0-3.48-0.82-4.37-2c-1.85-2.52-2.15-6.74-2.15-19.25c0-12.52,0.3-16.74,2.15-19.25c0.89-1.18,2.3-2,4.37-2
					c2.07,0,3.41,0.82,4.29,2c1.77,2.41,2.19,6.4,2.22,17.71h0V-50.88z"/>
				
					<path style="clip-path:url(#SVGID_00000165196726832344090130000012230046059165907884_);fill-rule:evenodd;clip-rule:evenodd;fill:#466D51;" d="
					M91.37,19.8c-8.41,10.33-28.95,20.39-43.5,11.54c-5.56-3.38-7.39-10.59-12.87-14.65c-8.66-6.42-20.05-1.45-23.08,7.1
					c12.59,4.48,13.13,20.31,19.97,31.07C36.89,62.71,43,70.11,55.42,70.4C82.25,71.03,95.36,49.63,91.37,19.8 M18.81,21.62
					c-0.75,0-1.37-0.61-1.37-1.37s0.61-1.37,1.37-1.37s1.37,0.61,1.37,1.37S19.56,21.62,18.81,21.62 M61.61,64.68
					c-16.53,0.47-20.74-14-20.71-13.34c-0.02-0.66-2.32-9.89,14.06-10.93c16.75-1.71,32.37-1.73,32.08-1.72
					C87.33,38.68,78.52,63.54,61.61,64.68"/>
				<polygon style="clip-path:url(#SVGID_00000165196726832344090130000012230046059165907884_);fill:#466D51;" points="
					105.99,69.82 105.99,16.99 126.39,16.99 126.39,22.7 112.37,22.7 112.37,40.43 124.46,40.43 124.46,46.15 112.37,46.15 
					112.37,64.1 126.39,64.1 126.39,69.82 				"/>
				<path style="clip-path:url(#SVGID_00000165196726832344090130000012230046059165907884_);fill:#466D51;" d="M152.14,67.52
					c-2.08,1.86-4.67,2.89-8.16,2.89c-4.15,0-7.05-1.56-9.05-3.86c-3.49-4.01-3.86-8.53-3.86-23.15c0-14.62,0.37-19.14,3.86-23.15
					c2-2.3,4.9-3.86,9.05-3.86c3.71,0,6.31,1.11,8.38,3.12c2.45,2.37,3.71,6.16,3.78,10.46h-6.31c-0.07-2.23-0.45-4.45-1.71-6.01
					c-0.82-1.04-2.15-1.85-4.15-1.85c-2.08,0-3.49,0.82-4.38,2c-1.86,2.52-2.15,6.75-2.15,19.29s0.3,16.77,2.15,19.29
					c0.89,1.19,2.3,2,4.38,2c2,0,3.34-0.82,4.15-1.86c1.19-1.56,1.63-3.86,1.71-6.08h6.31C156.07,61.21,154.73,65.14,152.14,67.52"
					/>
				<path style="clip-path:url(#SVGID_00000165196726832344090130000012230046059165907884_);fill:#466D51;" d="M182.93,66.55
					c-2.08,2.3-4.9,3.86-9.05,3.86s-6.98-1.56-9.05-3.86c-3.41-3.78-3.86-8.53-3.86-23.15c0-14.62,0.45-19.37,3.86-23.15
					c2.08-2.3,4.9-3.86,9.05-3.86s6.97,1.56,9.05,3.86c3.41,3.78,3.86,8.53,3.86,23.15C186.79,58.02,186.34,62.77,182.93,66.55
					 M178.18,24.11c-0.89-1.19-2.23-2-4.3-2c-2.08,0-3.49,0.82-4.38,2c-1.86,2.52-2.15,6.75-2.15,19.29
					c0,12.54,0.3,16.77,2.15,19.29c0.89,1.19,2.3,2,4.38,2c2.08,0,3.41-0.82,4.3-2c1.85-2.52,2.23-6.75,2.23-19.29
					C180.4,30.86,180.03,26.63,178.18,24.11"/>
				<polygon style="clip-path:url(#SVGID_00000165196726832344090130000012230046059165907884_);fill:#83B786;" points="
					193.17,69.82 193.17,16.99 213.57,16.99 213.57,22.7 199.55,22.7 199.55,40.43 211.64,40.43 211.64,46.15 199.55,46.15 
					199.55,64.1 213.57,64.1 213.57,69.82 				"/>
				<polygon style="clip-path:url(#SVGID_00000165196726832344090130000012230046059165907884_);fill:#83B786;" points="
					239.54,69.82 225.89,33.68 225.89,69.82 219.51,69.82 219.51,16.99 225.44,16.99 238.95,53.12 238.95,16.99 245.33,16.99 
					245.33,69.82 				"/>
				<path style="clip-path:url(#SVGID_00000165196726832344090130000012230046059165907884_);fill:#83B786;" d="M272.85,67.52
					c-2.08,1.86-4.67,2.89-8.16,2.89c-4.15,0-7.05-1.56-9.05-3.86c-3.49-4.01-3.86-8.53-3.86-23.15c0-14.62,0.37-19.14,3.86-23.15
					c2-2.3,4.9-3.86,9.05-3.86c3.71,0,6.31,1.11,8.38,3.12c2.45,2.37,3.71,6.16,3.78,10.46h-6.31c-0.07-2.23-0.45-4.45-1.71-6.01
					c-0.82-1.04-2.15-1.85-4.15-1.85c-2.08,0-3.49,0.82-4.38,2c-1.86,2.52-2.15,6.75-2.15,19.29s0.3,16.77,2.15,19.29
					c0.89,1.19,2.3,2,4.38,2c2,0,3.34-0.82,4.15-1.86c1.19-1.56,1.63-3.86,1.71-6.08h6.31C276.79,61.21,275.45,65.14,272.85,67.52"
					/>
				<polygon style="clip-path:url(#SVGID_00000165196726832344090130000012230046059165907884_);fill:#83B786;" points="
					282.57,69.82 282.57,16.99 288.95,16.99 288.95,64.1 302.98,64.1 302.98,69.82 				"/>
				<path style="clip-path:url(#SVGID_00000165196726832344090130000012230046059165907884_);fill:#83B786;" d="M356.92,67.15
					c-2,1.93-5.12,3.19-9.35,3.19c-4.08,0-7.2-1.11-9.27-3.19c-2.45-2.45-3.26-5.49-3.26-11.13h6.38c0,3.49,0.37,5.42,1.78,6.9
					c0.89,0.96,2.37,1.63,4.38,1.63c2.15,0,3.56-0.67,4.53-1.71c1.41-1.56,1.71-3.56,1.71-7.05c0-6.08-0.89-7.94-5.19-9.72
					l-6.01-2.45c-5.42-2.23-7.2-5.19-7.2-13.21c0-4.6,1.34-8.38,4.01-10.83c2.08-1.93,4.9-3.04,8.39-3.04
					c3.86,0,6.75,1.11,8.75,3.04c2.67,2.6,3.49,6.01,3.49,10.83h-6.38c0-2.82-0.3-4.75-1.63-6.38c-0.89-1.11-2.3-1.78-4.3-1.78
					c-1.85,0-3.19,0.67-4.08,1.63c-1.26,1.41-1.86,3.56-1.86,6.31c0,5.19,0.82,6.75,5.05,8.53l5.93,2.45
					c6.01,2.45,7.42,6.16,7.42,14.47C360.19,61.14,359.44,64.62,356.92,67.15"/>
				<polygon style="clip-path:url(#SVGID_00000165196726832344090130000012230046059165907884_);fill:#83B786;" points="
					366.27,69.82 366.27,16.99 386.67,16.99 386.67,22.7 372.65,22.7 372.65,40.43 384.75,40.43 384.75,46.15 372.65,46.15 
					372.65,64.1 386.67,64.1 386.67,69.82 				"/>
				<path style="clip-path:url(#SVGID_00000165196726832344090130000012230046059165907884_);fill:#83B786;" d="M324.16,43.35
					L324.16,43.35c0,0.35,0,0.67,0,1h-3.55l3.49,6.05l3.22,5.58l3.15-5.46l3.56-6.17h-3.49c0-0.33,0-0.66,0-1l0-0.29l-0.01-1.25h0
					c-0.03-13.38-0.57-17.92-3.85-21.56c-2.07-2.3-4.89-3.85-9.03-3.85c-4.15,0-6.96,1.55-9.03,3.85c-3.41,3.78-3.85,8.52-3.85,23.1
					c0,14.59,0.44,19.33,3.85,23.1c2.07,2.29,4.89,3.85,9.03,3.85c4.15,0,6.96-1.56,9.03-3.85c2.38-2.64,3.32-5.76,3.66-12.39
					l-3.02,5.24l-3.33-5.77c-0.25,5.01-0.83,7.42-2.05,9.08c-0.89,1.18-2.22,2-4.29,2c-2.07,0-3.48-0.82-4.37-2
					c-1.85-2.52-2.15-6.74-2.15-19.25c0-12.51,0.3-16.74,2.15-19.25c0.89-1.18,2.3-2,4.37-2c2.07,0,3.41,0.82,4.29,2
					c1.77,2.41,2.19,6.4,2.22,17.71h0V43.35z"/>
			</g>
		</g>
	</g>
</g>
</svg>
